<svg width="44" height="29" viewBox="0 0 44 29" fill="none" xmlns="http://www.w3.org/2000/svg">
<path d="M42.5123 4.56314C42.2664 3.6862 41.7876 2.89226 41.1266 2.26573C40.4469 1.61993 39.6139 1.15797 38.7061 0.923461C35.3089 0.0280133 21.6981 0.0280135 21.6981 0.0280135C16.0239 -0.0365443 10.3511 0.247397 4.71171 0.878236C3.80395 1.13007 2.97249 1.60235 2.29129 2.25306C1.62197 2.89706 1.13716 3.69121 0.883901 4.56133C0.275527 7.83874 -0.0200631 11.1666 0.00111647 14.4999C-0.0205913 17.8302 0.274273 21.1569 0.883901 24.4384C1.13173 25.305 1.61473 26.0955 2.28586 26.734C2.957 27.3726 3.79275 27.8339 4.71171 28.0781C8.15421 28.9718 21.6981 28.9718 21.6981 28.9718C27.3795 29.0364 33.0595 28.7525 38.7061 28.1215C39.6139 27.887 40.4469 27.4251 41.1266 26.7793C41.7959 26.1407 42.2717 25.3466 42.5104 24.4819C43.1347 21.2057 43.4382 17.8765 43.4167 14.5415C43.4637 11.1923 43.1605 7.84746 42.5123 4.56133V4.56314ZM17.371 20.6938V8.30773L28.6952 14.5017L17.371 20.6938Z" fill="#9BA8A8"/>
</svg>
