<svg width="42" height="39" viewBox="0 0 42 39" fill="none" xmlns="http://www.w3.org/2000/svg">
<g clip-path="url(#clip0_303_11941)">
<path fill-rule="evenodd" clip-rule="evenodd" d="M41.0375 9.66745C41.328 8.7802 41.0375 8.12695 39.6463 8.12695H35.0525C33.8835 8.12695 33.3445 8.69083 33.0522 9.3132C33.0522 9.3132 30.716 14.5067 27.4067 17.8802C26.3358 18.8585 25.8493 19.1688 25.2648 19.1688C24.9725 19.1688 24.5333 18.8585 24.5333 17.9696V9.66745C24.5333 8.60145 24.2113 8.12695 23.2383 8.12695H16.0142C15.2845 8.12695 14.8452 8.62095 14.8452 9.09058C14.8452 10.0997 16.5007 10.3337 16.6705 13.1742V19.346C16.6705 20.6996 16.4028 20.945 15.8182 20.945C14.2607 20.945 10.472 15.7271 8.22325 9.75683C7.7875 8.59495 7.3465 8.12695 6.17225 8.12695H1.575C0.2625 8.12695 0 8.69083 0 9.3132C0 10.4215 1.5575 15.927 7.25375 23.2086C11.0513 28.1811 16.3975 30.877 21.2677 30.877C24.1885 30.877 24.549 30.279 24.549 29.2471V25.4885C24.549 24.2908 24.8255 24.052 25.7513 24.052C26.4338 24.052 27.601 24.364 30.3275 26.7608C33.4425 29.603 33.9552 30.877 35.7088 30.877H40.3025C41.615 30.877 42.273 30.279 41.895 29.096C41.4785 27.9195 39.991 26.2116 38.0187 24.1852C36.9478 23.0315 35.3413 21.7883 34.853 21.166C34.1722 20.3681 34.3665 20.0122 34.853 19.3021C34.853 19.3021 40.453 12.1098 41.0357 9.66745H41.0375Z" fill="#9BA8A8"/>
</g>
<defs>
<clipPath id="clip0_303_11941">
<rect width="42" height="39" fill="white"/>
</clipPath>
</defs>
</svg>
