<svg width="360" height="536" viewBox="0 0 360 536" fill="none" xmlns="http://www.w3.org/2000/svg">
<path fill-rule="evenodd" clip-rule="evenodd" d="M0 47.0566C0 25.7424 16.713 8.17197 38.0006 7.1066L180 0L321.999 7.1066C343.287 8.17197 360 25.7424 360 47.0566V143.8C360 153.866 351.582 161.208 343.661 167.42C340.718 169.729 339 172.509 339 175.5C339 178.491 340.718 181.271 343.661 183.58C351.582 189.792 360 197.134 360 207.2V496C360 518.091 342.091 536 320 536H40C17.9086 536 0 518.091 0 496V207.2C0 197.134 8.41832 189.792 16.3385 183.58C19.2822 181.271 21 178.491 21 175.5C21 172.509 19.2822 169.729 16.3385 167.42C8.41832 161.208 0 153.866 0 143.8V47.0566Z" fill="white"/>
</svg>
