<svg width="350" height="321" viewBox="0 0 350 321" fill="none" xmlns="http://www.w3.org/2000/svg">
<g filter="url(#filter0_b_172_27972)">
<mask id="path-1-inside-1_172_27972" fill="white">
<path fill-rule="evenodd" clip-rule="evenodd" d="M175 60.2802C204.745 60.2802 229.434 38.6361 234.177 10.2383C235.087 4.79097 239.477 0.280212 245 0.280212H310C332.091 0.280212 350 18.1888 350 40.2802V280.28C350 302.372 332.091 320.28 310 320.28H40C17.9086 320.28 0 302.372 0 280.28V40.2802C0 18.1888 17.9086 0.280212 40 0.280212H105C110.523 0.280212 114.913 4.79097 115.823 10.2383C120.566 38.6361 145.255 60.2802 175 60.2802Z"/>
</mask>
<path fill-rule="evenodd" clip-rule="evenodd" d="M175 60.2802C204.745 60.2802 229.434 38.6361 234.177 10.2383C235.087 4.79097 239.477 0.280212 245 0.280212H310C332.091 0.280212 350 18.1888 350 40.2802V280.28C350 302.372 332.091 320.28 310 320.28H40C17.9086 320.28 0 302.372 0 280.28V40.2802C0 18.1888 17.9086 0.280212 40 0.280212H105C110.523 0.280212 114.913 4.79097 115.823 10.2383C120.566 38.6361 145.255 60.2802 175 60.2802Z" fill="white" fill-opacity="0.6"/>
<path d="M234.177 10.2383L233.191 10.0736L234.177 10.2383ZM233.191 10.0736C228.527 37.9973 204.248 59.2802 175 59.2802V61.2802C205.241 61.2802 230.341 39.2749 235.164 10.4031L233.191 10.0736ZM245 1.28021H310V-0.719788H245V1.28021ZM310 1.28021C331.539 1.28021 349 18.7411 349 40.2802H351C351 17.6365 332.644 -0.719788 310 -0.719788V1.28021ZM349 40.2802V280.28H351V40.2802H349ZM349 280.28C349 301.819 331.539 319.28 310 319.28V321.28C332.644 321.28 351 302.924 351 280.28H349ZM310 319.28H40V321.28H310V319.28ZM40 319.28C18.4609 319.28 1 301.819 1 280.28H-1C-1 302.924 17.3563 321.28 40 321.28V319.28ZM1 280.28V40.2802H-1V280.28H1ZM1 40.2802C1 18.7411 18.4609 1.28021 40 1.28021V-0.719788C17.3563 -0.719788 -1 17.6365 -1 40.2802H1ZM40 1.28021H105V-0.719788H40V1.28021ZM175 59.2802C145.752 59.2802 121.473 37.9973 116.809 10.0736L114.836 10.4031C119.659 39.2749 144.759 61.2802 175 61.2802V59.2802ZM105 1.28021C109.937 1.28021 113.99 5.33496 114.836 10.4031L116.809 10.0736C115.836 4.24698 111.109 -0.719788 105 -0.719788V1.28021ZM235.164 10.4031C236.01 5.33496 240.063 1.28021 245 1.28021V-0.719788C238.891 -0.719788 234.164 4.24697 233.191 10.0736L235.164 10.4031Z" fill="url(#paint0_linear_172_27972)" mask="url(#path-1-inside-1_172_27972)"/>
</g>
<defs>
<filter id="filter0_b_172_27972" x="-50" y="-49.7198" width="450" height="420" filterUnits="userSpaceOnUse" color-interpolation-filters="sRGB">
<feFlood flood-opacity="0" result="BackgroundImageFix"/>
<feGaussianBlur in="BackgroundImageFix" stdDeviation="25"/>
<feComposite in2="SourceAlpha" operator="in" result="effect1_backgroundBlur_172_27972"/>
<feBlend mode="normal" in="SourceGraphic" in2="effect1_backgroundBlur_172_27972" result="shape"/>
</filter>
<linearGradient id="paint0_linear_172_27972" x1="0" y1="0.280212" x2="395.168" y2="248.319" gradientUnits="userSpaceOnUse">
<stop stop-color="white"/>
<stop offset="1" stop-color="white" stop-opacity="0.35"/>
</linearGradient>
</defs>
</svg>
