<svg width="46" height="55" viewBox="0 0 46 55" fill="none" xmlns="http://www.w3.org/2000/svg">
<g clip-path="url(#clip0_164_28767)">
<path fill-rule="evenodd" clip-rule="evenodd" d="M8 0C3.58172 0 0 3.58172 0 8V47C0 51.4183 3.58172 55 8 55H38C42.4183 55 46 51.4183 46 47V13.75L31.8025 0H8Z" fill="#7AC361"/>
<path d="M32.2235 37.0407C30.3072 36.9028 28.4622 36.2136 26.9718 34.973C24.0621 35.5932 21.2939 36.489 18.5261 37.5921C16.3262 41.3826 14.2679 43.3124 12.4936 43.3124C12.1386 43.3124 11.713 43.2437 11.4291 43.0367C10.6482 42.6923 10.2227 41.934 10.2227 41.176C10.2227 40.5555 10.3646 38.8327 17.1067 36.0067C18.6684 33.2498 19.8745 30.4242 20.8683 27.4607C20.0165 25.8066 18.1715 21.74 19.4486 19.6727C19.8745 18.9144 20.7263 18.5009 21.6492 18.57C22.3587 18.57 23.0682 18.9144 23.4942 19.4658C24.417 20.7064 24.346 23.3254 23.1392 27.185C24.275 29.2497 25.7627 31.1138 27.5394 32.6988C29.0301 32.4227 30.5202 32.2162 32.0105 32.2162C35.3462 32.2849 35.8432 33.8012 35.7722 34.6973C35.7722 37.0407 33.4299 37.0407 32.2235 37.0407ZM12.3519 41.3135L12.5649 41.2448C13.5584 40.9003 14.3389 40.2111 14.9068 39.3149C13.842 39.7285 12.9905 40.4177 12.3519 41.3138V41.3135ZM21.7908 20.6376H21.5778C21.5069 20.6376 21.3649 20.6376 21.2939 20.7064C21.0099 21.8779 21.2229 23.1185 21.7198 24.2212C22.1457 23.0497 22.1457 21.8091 21.7908 20.6376ZM22.2877 30.6311L22.2167 30.7686L22.1457 30.6999C21.5069 32.2853 20.797 33.8703 20.0165 35.3866L20.1584 35.3178V35.4553C21.7367 34.9011 23.3484 34.4408 24.9845 34.0769L24.9135 34.0081H25.1265C24.0617 32.9741 23.0682 31.8026 22.2877 30.6311ZM31.9396 34.2838C31.3007 34.2838 30.7331 34.2838 30.0942 34.4213C30.8041 34.7661 31.514 34.9039 32.2235 34.973C32.7204 35.0418 33.2173 34.973 33.6429 34.8352C33.6429 34.6283 33.3589 34.2838 31.9396 34.2838Z" fill="white"/>
<path d="M35.8025 13.75L46 13.75L31.8025 -1.20206e-06L31.8025 9.75C31.8025 11.9591 33.5933 13.75 35.8025 13.75Z" fill="#A7EA90"/>
</g>
<defs>
<clipPath id="clip0_164_28767">
<rect width="46" height="55" fill="white"/>
</clipPath>
</defs>
</svg>
