<svg width="46" height="55" viewBox="0 0 46 55" fill="none" xmlns="http://www.w3.org/2000/svg">
<g clip-path="url(#clip0_575_32859)">
<path fill-rule="evenodd" clip-rule="evenodd" d="M8 0C3.58172 0 0 3.58172 0 8V47C0 51.4183 3.58172 55 8 55H38C42.4183 55 46 51.4183 46 47V13.75L31.8025 0H8Z" fill="#7AC361"/>
<path d="M35.8025 13.75L46 13.75L31.8025 -1.20206e-06L31.8025 9.75C31.8025 11.9591 33.5933 13.75 35.8025 13.75Z" fill="#A7EA90"/>
</g>
<path d="M11.1192 35.9395L15.5116 29.5271C15.5678 29.4449 15.6415 29.376 15.7276 29.3253C15.8136 29.2745 15.9098 29.2432 16.0093 29.2334C16.1089 29.2237 16.2094 29.2358 16.3037 29.2689C16.3981 29.3021 16.4839 29.3554 16.5552 29.4251L19.458 32.25L25.8271 22.3343C25.8901 22.2359 25.9777 22.1553 26.0812 22.1004C26.1848 22.0454 26.3009 22.0179 26.4183 22.0205C26.5357 22.0231 26.6505 22.0558 26.7515 22.1153C26.8524 22.1749 26.9363 22.2593 26.9948 22.3604L34.9082 35.9823C34.9683 36.0854 34.9999 36.2024 35 36.3216C35.0001 36.4407 34.9685 36.5578 34.9085 36.661C34.8485 36.7642 34.7622 36.8499 34.6583 36.9094C34.5543 36.9689 34.4364 37.0001 34.3165 37H11.6841C11.5598 37.0003 11.4377 36.9668 11.3312 36.9032C11.2246 36.8396 11.1375 36.7483 11.0793 36.6391C11.0211 36.53 10.9941 36.4071 11.0011 36.2838C11.0081 36.1605 11.0488 36.0414 11.1189 35.9395H11.1192Z" fill="white"/>
<path d="M12.4346 21.4201C12.4346 22.3272 12.7974 23.1971 13.4431 23.8385C14.0889 24.4799 14.9647 24.8403 15.8779 24.8403C16.7912 24.8403 17.667 24.4799 18.3127 23.8385C18.9585 23.1971 19.3212 22.3272 19.3212 21.4201C19.3212 20.5131 18.9585 19.6431 18.3127 19.0017C17.667 18.3603 16.7912 18 15.8779 18C14.9647 18 14.0889 18.3603 13.4431 19.0017C12.7974 19.6431 12.4346 20.5131 12.4346 21.4201Z" fill="white"/>
<defs>
<clipPath id="clip0_575_32859">
<rect width="46" height="55" fill="white"/>
</clipPath>
</defs>
</svg>
