<svg width="110" height="100" viewBox="0 0 110 100" fill="none" xmlns="http://www.w3.org/2000/svg">
<path d="M46.4717 29.5434L5.26669 41.6408C2.35798 42.4947 0.691435 45.5479 1.54436 48.4601L15.0947 94.7268C15.9476 97.6391 18.997 99.3076 21.9057 98.4537L63.1107 86.3563C66.0195 85.5023 67.686 82.4492 66.8331 79.5369L53.2828 33.2702C52.4298 30.358 49.3804 28.6894 46.4717 29.5434Z" fill="#9BA8A8"/>
<path d="M104.931 21.1766L43.055 3.03664C41.4627 2.56983 39.7939 3.48379 39.3277 5.07803L19.7163 72.1365C19.25 73.7308 20.1629 75.4016 21.7552 75.8684L83.631 94.0083C85.2233 94.4752 86.892 93.5612 87.3583 91.9669L106.97 24.9084C107.436 23.3142 106.523 21.6434 104.931 21.1766Z" fill="#9BA8A8"/>
<path fill-rule="evenodd" clip-rule="evenodd" d="M42.5573 4.73177C41.9001 4.53908 41.2112 4.91634 41.0188 5.5744L21.4074 72.6329C21.2149 73.291 21.5917 73.9806 22.249 74.1733L84.1248 92.3133C84.782 92.506 85.4709 92.1287 85.6633 91.4706L105.275 24.4121C105.467 23.7541 105.09 23.0644 104.433 22.8717L42.5573 4.73177ZM37.6327 4.58172C38.3727 2.05131 41.0215 0.600641 43.5488 1.34157L105.425 19.4815C107.952 20.2225 109.401 22.8744 108.661 25.4048L89.0494 92.4633C88.3093 94.9937 85.6606 96.4444 83.1333 95.7035L21.2575 77.5635C18.7302 76.8226 17.2813 74.1706 18.0213 71.6402L37.6327 4.58172Z" fill="white"/>
<path d="M98.8991 26.6072L45.7109 11.0142L31.4406 59.8098L84.6287 75.4028L98.8991 26.6072Z" fill="#E2E9E9"/>
<path fill-rule="evenodd" clip-rule="evenodd" d="M45.0037 10.8068C45.1181 10.4154 45.5278 10.191 45.9187 10.3056L99.1069 25.8987C99.4978 26.0133 99.7219 26.4235 99.6074 26.8148L85.337 75.6105C85.2226 76.0019 84.8129 76.2262 84.422 76.1116L31.2339 60.5186C30.8429 60.404 30.6188 59.9938 30.7333 59.6025L45.0037 10.8068ZM46.212 11.9305L32.3562 59.3088L84.1287 74.4868L97.9846 27.1085L46.212 11.9305Z" fill="white"/>
<path d="M98.8991 26.6072L45.7109 11.0142L39.0514 33.7855L92.2395 49.3785L98.8991 26.6072Z" fill="white"/>
<path fill-rule="evenodd" clip-rule="evenodd" d="M45.0037 10.8068C45.1181 10.4154 45.5278 10.191 45.9187 10.3056L99.1069 25.8987C99.4978 26.0133 99.7219 26.4235 99.6074 26.8148L92.9479 49.5862C92.8334 49.9776 92.4237 50.202 92.0328 50.0874L38.8447 34.4944C38.4538 34.3797 38.2297 33.9696 38.3442 33.5782L45.0037 10.8068ZM46.212 11.9305L39.967 33.2845L91.7395 48.4625L97.9846 27.1085L46.212 11.9305Z" fill="white"/>
<path fill-rule="evenodd" clip-rule="evenodd" d="M42.2979 34.7384L48.1612 30.1542L56.149 27.1791L57.2801 29.6974L59.9812 25.935L60.964 25.872L63.3001 23.2358L77.0865 48.4692" fill="#E2E9E9"/>
<path fill-rule="evenodd" clip-rule="evenodd" d="M63.3875 22.5017C63.626 22.5287 63.8365 22.6702 63.9517 22.8811L77.738 48.1146C77.9335 48.4723 77.8023 48.921 77.4449 49.1168C77.0876 49.3125 76.6394 49.1811 76.4439 48.8233L63.1606 24.5106L61.5201 26.3618C61.391 26.5075 61.2097 26.5962 61.0155 26.6086L60.3809 26.6493L57.8835 30.1281C57.7296 30.3424 57.4731 30.4583 57.2108 30.4318C56.9484 30.4054 56.7201 30.2407 56.612 30L55.7639 28.1117L48.5297 30.8061L42.7563 35.3201C42.4353 35.5711 41.9718 35.514 41.7211 35.1926C41.4704 34.8711 41.5274 34.4071 41.8485 34.1561L47.7118 29.5719C47.7713 29.5253 47.8377 29.4882 47.9085 29.4618L55.8964 26.4867C56.2603 26.3511 56.6669 26.5213 56.8261 26.8759L57.4325 28.2259L59.3868 25.5037C59.5157 25.3241 59.7182 25.2119 59.9386 25.1977L60.6183 25.1542L62.7529 22.7454C62.9122 22.5656 63.149 22.4747 63.3875 22.5017Z" fill="white"/>
<path fill-rule="evenodd" clip-rule="evenodd" d="M63.3055 23.2353C63.2264 25.1517 63.0922 27.0658 62.9031 28.9745C62.7597 30.423 62.5846 31.8684 62.3781 33.3093L60.2155 31.8323L56.1544 27.1785L55.2588 32.3818L54.2978 35.0183L54.4232 38.6314L62.7222 39.6804L72.4964 40.0576L69.7751 30.1433L68.251 31.4547L66.0149 28.1943L63.3055 23.2353Z" fill="#9BA8A8"/>
<path fill-rule="evenodd" clip-rule="evenodd" d="M63.1343 22.5164C63.4569 22.4409 63.7902 22.5901 63.9492 22.8811L66.6407 27.8073L68.3904 30.3585L69.291 29.5835C69.4827 29.4186 69.7454 29.3634 69.9871 29.4373C70.2288 29.5112 70.4159 29.7038 70.4829 29.9478L73.2042 39.8621C73.2665 40.0891 73.217 40.3322 73.0709 40.5166C72.9248 40.7011 72.6996 40.8047 72.4647 40.7956L62.6905 40.4184C62.6691 40.4176 62.6477 40.4158 62.6265 40.4131L54.3275 39.3642C53.9685 39.3188 53.6953 39.0193 53.6828 38.6572L53.5574 35.0441C53.5541 34.9492 53.5691 34.8545 53.6016 34.7653L54.5399 32.1911L55.4242 27.0533C55.4726 26.7726 55.6778 26.5448 55.9517 26.4678C56.2256 26.3908 56.5193 26.4784 56.7064 26.6929L60.7056 31.2756L61.8062 32.0273C61.9426 30.9875 62.0625 29.9454 62.1659 28.9018C62.3535 27.0072 62.4867 25.1072 62.5653 23.2049C62.579 22.8735 62.8117 22.5919 63.1343 22.5164ZM63.8981 25.8649C63.8268 26.9271 63.7386 27.9881 63.6337 29.0475C63.4892 30.5068 63.3128 31.9628 63.1048 33.4144C63.0687 33.6667 62.9051 33.8825 62.672 33.9853C62.439 34.088 62.1695 34.0632 61.9592 33.9195L59.7966 32.4425C59.7449 32.4072 59.6979 32.3655 59.6568 32.3184L56.6148 28.8324L55.9822 32.5074C55.9747 32.5509 55.9634 32.5936 55.9482 32.6351L55.0365 35.1365L55.1351 37.9777L62.7794 38.9439L71.515 39.2811L69.3692 31.4635L68.7284 32.0149C68.5695 32.1516 68.3601 32.2142 68.1524 32.1871C67.9447 32.16 67.7583 32.0458 67.6397 31.8729L65.4036 28.6125C65.3895 28.592 65.3765 28.5708 65.3646 28.5489L63.8981 25.8649Z" fill="#9BA8A8"/>
<path fill-rule="evenodd" clip-rule="evenodd" d="M54.3487 41.8014L65.5789 36.331L67.8901 35.8689L71.8529 31.8282L75.3509 30.2988L89.1372 55.5322" fill="#E2E9E9"/>
<path fill-rule="evenodd" clip-rule="evenodd" d="M75.0524 29.6222C75.4024 29.4692 75.8113 29.609 75.9946 29.9445L89.7809 55.178C89.9764 55.5358 89.8452 55.9845 89.4878 56.1802C89.1305 56.3759 88.6823 56.2446 88.4868 55.8868L75.0243 31.246L72.2757 32.4478L68.413 36.3864C68.3093 36.4921 68.1763 36.5642 68.0312 36.5932L65.8129 37.0367L54.668 42.4656C54.3017 42.644 53.8603 42.4913 53.6821 42.1246C53.5039 41.7579 53.6564 41.316 54.0227 41.1375L65.2529 35.6671C65.3095 35.6396 65.3694 35.6194 65.4311 35.607L67.5196 35.1894L71.3233 31.311C71.3894 31.2436 71.4679 31.1895 71.5544 31.1516L75.0524 29.6222Z" fill="white"/>
<path fill-rule="evenodd" clip-rule="evenodd" d="M75.3516 30.2988L76.6779 40.2137L75.7231 43.4787L74.7682 46.7438L76.5832 49.5677C77.4944 49.0754 78.4893 48.739 79.512 48.5774C81.3397 48.2885 83.2028 48.5575 85.0527 48.598C85.8037 48.6145 86.5728 48.5899 87.2749 48.3226C87.4538 48.2545 87.6268 48.1712 87.7915 48.0737L84.5425 47.1211L81.4398 41.4375L79.7576 35.1849L78.3669 35.8178L75.3516 30.2988Z" fill="#9BA8A8"/>
<path fill-rule="evenodd" clip-rule="evenodd" d="M75.1185 29.5974C75.4562 29.4865 75.8248 29.6325 75.9953 29.9446L78.6819 34.862L79.4491 34.5129C79.6463 34.4231 79.8729 34.4247 80.0688 34.5172C80.2647 34.6096 80.4101 34.7837 80.4664 34.993L82.1258 41.1607L85.0397 46.4987L87.9955 47.3652C88.2775 47.4479 88.4836 47.6902 88.5201 47.9821C88.5566 48.2741 88.4165 48.5598 88.1636 48.7095C87.9627 48.8284 87.7518 48.93 87.5337 49.013C86.6885 49.3348 85.7954 49.3532 85.0333 49.3365C84.4935 49.3246 83.9201 49.2918 83.3632 49.26C82.9758 49.2378 82.5964 49.2161 82.242 49.2022C81.3346 49.1667 80.4675 49.1736 79.6237 49.307C78.6833 49.4556 77.768 49.7651 76.9301 50.2177C76.591 50.401 76.1682 50.2919 75.9597 49.9675L74.1447 47.1436C74.029 46.9635 73.997 46.742 74.0571 46.5365L75.9229 40.1567L74.6173 30.397C74.5701 30.0444 74.7808 29.7082 75.1185 29.5974ZM76.6062 34.1401L77.4056 40.1159C77.4193 40.2182 77.4114 40.3223 77.3824 40.4214L75.5673 46.6279L76.8435 48.6135C77.6543 48.2456 78.5143 47.9872 79.3937 47.8482C80.3776 47.6927 81.356 47.6896 82.2995 47.7265C82.7209 47.743 83.1163 47.766 83.5038 47.7885C83.7868 47.805 84.0655 47.8212 84.3472 47.8345L84.3319 47.83C84.1441 47.7749 83.9859 47.6474 83.892 47.4755L80.7893 41.7918C80.7614 41.7406 80.7395 41.6862 80.7244 41.6297L79.2682 36.2174L78.6687 36.4902C78.3172 36.6502 77.9019 36.5116 77.7165 36.1724L76.6062 34.1401Z" fill="#9BA8A8"/>
<path fill-rule="evenodd" clip-rule="evenodd" d="M47.6892 64.5732C47.9485 63.5189 47.2927 62.3838 50.5165 61.7914C54.4721 61.0646 65.2894 61.8971 68.8974 60.118C71.5667 58.8018 62.4658 53.7976 64.812 51.9655C65.8758 51.1348 71.8391 51.6746 74.6687 51.291C77.3509 50.9273 76.9366 49.6243 79.0205 49.0377C81.0334 48.4711 87.0501 49.0637 87.791 48.074C86.3295 48.8843 79.689 48.1009 77.0923 48.4695C74.3519 48.8585 74.1352 49.949 70.8038 50.0971C67.2148 50.2567 60.4977 49.4954 58.7125 50.1451C54.9735 51.5058 62.437 56.2524 58.5646 57.1656C53.3206 58.4024 41.0175 57.1186 35.6442 57.5101C31.9312 57.7806 32.0048 58.5326 31.4438 59.8105" fill="white"/>
<path fill-rule="evenodd" clip-rule="evenodd" d="M88.3438 47.5887C88.5723 47.8512 88.5864 48.2379 88.3778 48.5166C88.1462 48.826 87.7911 48.9844 87.5132 49.0768C87.2105 49.1775 86.8549 49.2453 86.4843 49.2942C85.7413 49.3924 84.8211 49.4293 83.8979 49.4524C83.6067 49.4597 83.3153 49.4657 83.0265 49.4716C82.3829 49.4847 81.7524 49.4976 81.1665 49.5246C80.3048 49.5643 79.6292 49.6322 79.2168 49.7483L79.0476 49.1457L79.2168 49.7483C78.4682 49.959 78.1504 50.2522 77.7345 50.6359C77.6784 50.6876 77.6206 50.7409 77.5597 50.7959C77.2908 51.0388 76.9677 51.3048 76.5091 51.5304C76.053 51.7548 75.4965 51.9232 74.7644 52.0224L74.6654 51.2907L74.7644 52.0224C73.5721 52.1841 71.8573 52.1888 70.2241 52.1934C69.8358 52.1944 69.4521 52.1955 69.0812 52.1987C68.0934 52.2071 67.188 52.2295 66.47 52.2983C66.1109 52.3328 65.8179 52.3772 65.595 52.4312C65.4844 52.458 65.401 52.4848 65.341 52.5092C65.2834 52.5326 65.2619 52.5478 65.2619 52.5478C65.2619 52.5478 65.262 52.5477 65.2623 52.5475C65.1561 52.6304 65.1523 52.6766 65.1563 52.7427C65.164 52.8696 65.2367 53.0919 65.4524 53.4265C65.8817 54.0928 66.6502 54.8708 67.4932 55.7119C67.5251 55.7437 67.5571 55.7756 67.5892 55.8076C68.3616 56.5779 69.1964 57.4103 69.6712 58.1452C69.9133 58.5199 70.1467 58.993 70.1256 59.4957C70.1004 60.0946 69.7337 60.5268 69.2199 60.7802C68.1973 61.2845 66.7369 61.5761 65.141 61.7611C63.5249 61.9484 61.6849 62.0344 59.8552 62.0871C58.9648 62.1128 58.0962 62.1302 57.2524 62.1472C56.3274 62.1657 55.4321 62.1837 54.5701 62.2112C52.9403 62.2633 51.574 62.347 50.6463 62.5174L50.5132 61.7911L50.6463 62.5174C49.0756 62.806 48.7332 63.1858 48.6327 63.3671C48.5729 63.4751 48.5407 63.6095 48.5179 63.8474C48.514 63.8874 48.5104 63.9343 48.5063 63.9865C48.4901 64.1934 48.4675 64.4834 48.4021 64.7494C48.3047 65.1454 47.9051 65.3874 47.5096 65.2899C47.1141 65.1924 46.8724 64.7923 46.9698 64.3963C47.0038 64.2581 47.0138 64.1337 47.0282 63.9541C47.034 63.8819 47.0405 63.8007 47.0496 63.7061C47.0775 63.4161 47.1315 63.0321 47.343 62.6504C47.7854 61.8525 48.727 61.3686 50.3801 61.0648C51.4302 60.8719 52.8994 60.787 54.5231 60.7352C55.3674 60.7082 56.2937 60.6894 57.2416 60.6702C58.0957 60.6529 58.9675 60.6352 59.8128 60.6109C61.6328 60.5585 63.4209 60.4737 64.9714 60.294C66.5421 60.112 67.7869 59.8405 68.5683 59.4553C68.6085 59.4354 68.6342 59.4187 68.6497 59.4071C68.6404 59.3474 68.5973 59.202 68.4327 58.9473C68.0453 58.3477 67.3035 57.6076 66.4549 56.7608L66.452 56.7579C65.6467 55.9544 64.7467 55.0556 64.2129 54.2272C63.9469 53.8144 63.7145 53.3349 63.684 52.8323C63.6498 52.269 63.8748 51.758 64.3551 51.3829C64.6142 51.1806 64.9481 51.0684 65.2482 50.9957C65.5661 50.9187 65.9357 50.866 66.3294 50.8282C66.4866 50.8131 66.6507 50.8002 66.8205 50.789C66.3862 50.7721 65.9479 50.7534 65.5124 50.7349C65.0184 50.7139 64.5279 50.693 64.0505 50.6749C62.8767 50.6304 61.777 50.602 60.8646 50.6239C59.9208 50.6465 59.2799 50.7228 58.9612 50.8388C58.589 50.9743 58.4611 51.114 58.4159 51.1874C58.3759 51.2524 58.3442 51.3558 58.3798 51.5604C58.4176 51.7769 58.522 52.0491 58.6952 52.3835C58.8663 52.7141 59.0803 53.0609 59.3114 53.4326L59.3391 53.4772C59.5557 53.8254 59.7871 54.1975 59.9764 54.5571C60.1707 54.9262 60.3525 55.3396 60.4202 55.7558C60.491 56.1911 60.4436 56.6866 60.1044 57.1156C59.7844 57.5202 59.2928 57.7514 58.7304 57.8841C55.9963 58.5289 51.505 58.5094 47.13 58.3927C46.1244 58.3659 45.1236 58.3338 44.1462 58.3026C40.8035 58.1956 37.7357 58.0975 35.6945 58.2462C33.8377 58.3815 33.1253 58.6333 32.7969 58.8761C32.5571 59.0536 32.4852 59.2268 32.3078 59.6546C32.2554 59.781 32.1937 59.9297 32.1157 60.1074C31.9518 60.4807 31.5167 60.6504 31.1438 60.4863C30.7709 60.3222 30.6014 59.8865 30.7653 59.5132C30.8017 59.4304 30.8379 59.3396 30.8763 59.2433C31.0697 58.7583 31.319 58.1332 31.9205 57.6883C32.6238 57.168 33.7312 56.9085 35.5874 56.7733C37.7137 56.6184 40.8976 56.7205 44.2585 56.8283C45.2211 56.8591 46.1983 56.8905 47.1692 56.9164C51.6001 57.0345 55.8822 57.0385 58.3922 56.4466C58.7979 56.3509 58.9201 56.234 58.9478 56.1989L58.9487 56.1978C58.9584 56.1858 58.9894 56.1474 58.9644 55.9931C58.9353 55.8146 58.8422 55.5699 58.6716 55.2458C58.5075 54.9342 58.3009 54.602 58.0739 54.2368L58.0592 54.2131C57.833 53.8493 57.5878 53.4537 57.3856 53.0631C57.1853 52.6763 57.0024 52.2485 56.9267 51.8143C56.849 51.3684 56.8779 50.8706 57.1605 50.412C57.4379 49.9618 57.8948 49.6555 58.4573 49.4508C59.0312 49.2419 59.8994 49.1698 60.8293 49.1474C61.7905 49.1244 62.9292 49.1545 64.1064 49.1991C64.6065 49.2181 65.1129 49.2396 65.6171 49.261C67.5149 49.3415 69.3817 49.4207 70.7678 49.3591L70.8005 50.0968L70.7678 49.3591C72.3299 49.2897 73.1314 49.0056 73.8824 48.6919C73.9774 48.6522 74.0729 48.6113 74.17 48.5698C74.8844 48.2643 75.6822 47.9231 76.9855 47.7381C78.1382 47.5745 80.0118 47.6242 81.8308 47.6725C82.1847 47.6818 82.5365 47.6912 82.8805 47.6989C83.9635 47.7231 84.9872 47.7328 85.8254 47.6882C86.2444 47.6658 86.6019 47.6306 86.8885 47.5807C87.1877 47.5286 87.3554 47.4693 87.4304 47.4277C87.7347 47.259 88.1153 47.3261 88.3438 47.5887ZM72.2339 50.6998C73.1213 50.6827 73.9289 50.6454 74.5665 50.5589C75.1755 50.4763 75.573 50.3454 75.8587 50.2049C76.1419 50.0656 76.3484 49.901 76.5717 49.6994C76.6232 49.6528 76.6755 49.6042 76.7295 49.5541C76.8466 49.4454 76.9714 49.3294 77.1123 49.2121C76.0576 49.3703 75.4356 49.6356 74.7529 49.9267C74.6539 49.969 74.5535 50.0117 74.4504 50.0548C73.8386 50.3104 73.1794 50.5512 72.2339 50.6998Z" fill="white"/>
</svg>
