<svg width="352" height="374" viewBox="0 0 352 374" fill="none" xmlns="http://www.w3.org/2000/svg">
<path fill-rule="evenodd" clip-rule="evenodd" d="M28.5016 323.546C12.5016 323.546 0.60901 315.903 0.731418 300.648L0.731418 25.3405C0.830918 12.9395 9.00159 0.779039 22.2896 0.779039L218.133 0.37792C233.394 0.377966 246.124 9.99766 246.002 25.2533L246.002 54.4998C245.879 69.7554 260.002 79.5365 275.667 79.5365L321.018 79.5365C337.586 79.5365 351.018 92.968 351.018 109.537L351.018 115.5L351.018 348.874C351.046 361.399 341.801 372.012 329.391 373.701L100.843 373.846C85.0016 373.846 72.3488 363.736 72.4709 348.508C72.5933 333.253 59.5016 323.546 44.0307 323.546L28.5016 323.546Z" fill="#E2E9E9"/>
</svg>
