<svg width="20" height="20" viewBox="0 0 20 20" fill="none" xmlns="http://www.w3.org/2000/svg">
<path d="M16.63 0.538135H16.6299L4.54519 0.538135L4.54514 0.538135C3.95048 0.538772 3.38037 0.77528 2.95988 1.19576C2.5394 1.61625 2.30289 2.18637 2.30225 2.78102V2.78108V4.06755H1.76402C1.59475 4.06755 1.43241 4.13479 1.31272 4.25448C1.19302 4.37417 1.12578 4.53651 1.12578 4.70578C1.12578 4.87505 1.19302 5.03739 1.31272 5.15708C1.43241 5.27677 1.59475 5.34402 1.76402 5.34402H2.30225V7.59696H1.76402C1.59475 7.59696 1.43241 7.6642 1.31272 7.78389C1.19302 7.90359 1.12578 8.06592 1.12578 8.23519C1.12578 8.40446 1.19302 8.5668 1.31272 8.68649C1.43241 8.80619 1.59475 8.87343 1.76402 8.87343H2.30225V11.1264H1.76402C1.59475 11.1264 1.43241 11.1936 1.31272 11.3133C1.19302 11.433 1.12578 11.5953 1.12578 11.7646C1.12578 11.9339 1.19302 12.0962 1.31272 12.2159C1.43241 12.3356 1.59475 12.4028 1.76402 12.4028H2.30225V14.6558H1.76402C1.59475 14.6558 1.43241 14.723 1.31272 14.8427C1.19302 14.9624 1.12578 15.1247 1.12578 15.294C1.12578 15.4633 1.19302 15.6256 1.31272 15.7453C1.43241 15.865 1.59475 15.9323 1.76402 15.9323H2.30225L2.30225 17.2187L2.30225 17.2188C2.30289 17.8134 2.5394 18.3836 2.95988 18.804C3.38037 19.2245 3.95048 19.461 4.54514 19.4617H4.54519H16.6299H16.63C17.2246 19.461 17.7947 19.2245 18.2152 18.804C18.6357 18.3836 18.8722 17.8134 18.8728 17.2188V17.2187V2.78108V2.78102C18.8722 2.18637 18.6357 1.61625 18.2152 1.19576C17.7947 0.77528 17.2246 0.538772 16.63 0.538135ZM17.5964 17.2187C17.5961 17.4749 17.4941 17.7206 17.313 17.9018C17.1318 18.083 16.8861 18.1849 16.6298 18.1852H4.54525C4.289 18.1849 4.04333 18.083 3.86214 17.9018C3.68094 17.7206 3.57902 17.4749 3.57872 17.2187V15.9323H4.11696C4.28623 15.9323 4.44857 15.865 4.56826 15.7453C4.68795 15.6256 4.75519 15.4633 4.75519 15.294C4.75519 15.1247 4.68795 14.9624 4.56826 14.8427C4.44857 14.723 4.28623 14.6558 4.11696 14.6558H3.57872V12.4028H4.11696C4.28623 12.4028 4.44857 12.3356 4.56826 12.2159C4.68795 12.0962 4.75519 11.9339 4.75519 11.7646C4.75519 11.5953 4.68795 11.433 4.56826 11.3133C4.44857 11.1936 4.28623 11.1264 4.11696 11.1264H3.57872V8.87343H4.11696C4.28623 8.87343 4.44857 8.80619 4.56826 8.68649C4.68795 8.5668 4.75519 8.40446 4.75519 8.23519C4.75519 8.06592 4.68795 7.90359 4.56826 7.78389C4.44857 7.6642 4.28623 7.59696 4.11696 7.59696H3.57872V5.34402H4.11696C4.28623 5.34402 4.44857 5.27677 4.56826 5.15708C4.68795 5.03739 4.75519 4.87505 4.75519 4.70578C4.75519 4.53651 4.68795 4.37417 4.56826 4.25448C4.44857 4.13479 4.28623 4.06755 4.11696 4.06755H3.57872V2.78113C3.57902 2.52489 3.68094 2.27922 3.86214 2.09802C4.04333 1.91683 4.289 1.8149 4.54525 1.81461H16.6298C16.8861 1.8149 17.1318 1.91683 17.313 2.09802C17.4941 2.27922 17.5961 2.52489 17.5964 2.78113V17.2187Z" fill="#292D32" stroke="#292D32" stroke-width="0.1"/>
<path d="M11.1755 10.0498H11.1756C11.7672 10.0498 12.3455 9.87436 12.8374 9.54568C13.3293 9.21701 13.7126 8.74985 13.939 8.20328C14.1654 7.65672 14.2247 7.05529 14.1093 6.47506C13.9938 5.89483 13.709 5.36185 13.2906 4.94353C12.8723 4.5252 12.3393 4.24032 11.7591 4.12491C11.1789 4.00949 10.5774 4.06873 10.0309 4.29512C9.48431 4.52152 9.01715 4.9049 8.68848 5.3968C8.3598 5.8887 8.18437 6.46701 8.18437 7.05861L8.18438 7.05867C8.18532 7.85167 8.50076 8.61192 9.0615 9.17266C9.62224 9.7334 10.3825 10.0488 11.1755 10.0498ZM11.1756 5.3439C11.5147 5.3439 11.8462 5.44447 12.1282 5.63288C12.4102 5.8213 12.63 6.0891 12.7597 6.40242C12.8895 6.71574 12.9235 7.06051 12.8573 7.39313C12.7911 7.72575 12.6278 8.03128 12.388 8.27109C12.1482 8.5109 11.8427 8.67421 11.5101 8.74037C11.1775 8.80653 10.8327 8.77257 10.5194 8.64279C10.206 8.51301 9.93824 8.29323 9.74983 8.01125C9.56141 7.72927 9.46085 7.39775 9.46085 7.05861C9.46085 6.60384 9.6415 6.1677 9.96307 5.84613C10.2846 5.52456 10.7208 5.3439 11.1756 5.3439Z" fill="#292D32" stroke="#292D32" stroke-width="0.1"/>
<path d="M6.41875 15.294V15.294C6.41875 15.4633 6.48599 15.6256 6.60568 15.7453C6.72538 15.865 6.88771 15.9323 7.05699 15.9323H15.2923C15.4616 15.9323 15.6239 15.865 15.7436 15.7453C15.8633 15.6256 15.9305 15.4633 15.9305 15.294V15.294C15.9291 14.0331 15.4276 12.8242 14.536 11.9326C13.6444 11.0411 12.4356 10.5396 11.1747 10.5381L11.1746 10.5381C9.91369 10.5396 8.70485 11.0411 7.81326 11.9326C6.92168 12.8242 6.42017 14.0331 6.41875 15.294ZM14.5956 14.6558H7.75366C7.89999 13.8674 8.31435 13.1531 8.92746 12.6344C9.55564 12.103 10.3518 11.8114 11.1746 11.8114C11.9974 11.8114 12.7936 12.103 13.4218 12.6344C14.0349 13.1531 14.4493 13.8674 14.5956 14.6558Z" fill="#292D32" stroke="#292D32" stroke-width="0.1"/>
</svg>
