<svg width="26" height="26" viewBox="0 0 26 26" fill="none" xmlns="http://www.w3.org/2000/svg">
<path d="M21.7629 19.8594H14.6439C9.99917 19.8594 6.22261 16.0829 6.22261 11.4381V4.09484C6.22261 3.68607 5.88981 3.35327 5.48105 3.35327H3.05016C2.64139 3.35327 2.30859 3.68607 2.30859 4.09484V11.4381C2.30859 18.2425 7.8432 23.7771 14.6475 23.7771H21.7702C22.2115 23.7771 22.5696 23.4189 22.5696 22.9776V20.6589C22.5624 20.2212 22.2043 19.8594 21.7629 19.8594Z" fill="#25282D"/>
<path d="M18.8688 10.7653C20.9106 10.7653 22.5658 9.11009 22.5658 7.06831C22.5658 5.02653 20.9106 3.37134 18.8688 3.37134C16.8271 3.37134 15.1719 5.02653 15.1719 7.06831C15.1719 9.11009 16.8271 10.7653 18.8688 10.7653Z" fill="#7AC361"/>
</svg>
