<svg width="350" height="340" viewBox="0 0 350 340" fill="none" xmlns="http://www.w3.org/2000/svg">
<g filter="url(#filter0_b_1123_55686)">
<mask id="path-1-inside-1_1123_55686" fill="white">
<path fill-rule="evenodd" clip-rule="evenodd" d="M175 60.2803C208.137 60.2803 235 33.4174 235 0.280273C235 0.12569 235.125 0 235.28 0H310C332.091 0 350 17.9086 350 40V300C350 322.091 332.091 340 310 340H40C17.9086 340 0 322.091 0 300V40C0 17.9086 17.9086 0 40 0H114.72C114.875 0 115 0.12569 115 0.280273C115 33.4174 141.863 60.2803 175 60.2803Z"/>
</mask>
<path fill-rule="evenodd" clip-rule="evenodd" d="M175 60.2803C208.137 60.2803 235 33.4174 235 0.280273C235 0.12569 235.125 0 235.28 0H310C332.091 0 350 17.9086 350 40V300C350 322.091 332.091 340 310 340H40C17.9086 340 0 322.091 0 300V40C0 17.9086 17.9086 0 40 0H114.72C114.875 0 115 0.12569 115 0.280273C115 33.4174 141.863 60.2803 175 60.2803Z" fill="white" fill-opacity="0.6"/>
<path d="M234 0.280273C234 32.8651 207.585 59.2803 175 59.2803V61.2803C208.689 61.2803 236 33.9696 236 0.280273H234ZM235.28 1H310V-1H235.28V1ZM310 1C331.539 1 349 18.4609 349 40H351C351 17.3563 332.644 -1 310 -1V1ZM349 40V300H351V40H349ZM349 300C349 321.539 331.539 339 310 339V341C332.644 341 351 322.644 351 300H349ZM310 339H40V341H310V339ZM40 339C18.4609 339 1 321.539 1 300H-1C-1 322.644 17.3563 341 40 341V339ZM1 300V40H-1V300H1ZM1 40C1 18.4609 18.4609 1 40 1V-1C17.3563 -1 -1 17.3563 -1 40H1ZM40 1H114.72V-1H40V1ZM175 59.2803C142.415 59.2803 116 32.8651 116 0.280273H114C114 33.9696 141.311 61.2803 175 61.2803V59.2803ZM114.72 1C114.32 1 114 0.675 114 0.280273H116C116 -0.42362 115.43 -1 114.72 -1V1ZM236 0.280273C236 0.674996 235.68 1 235.28 1V-1C234.57 -1 234 -0.423616 234 0.280273H236Z" fill="url(#paint0_linear_1123_55686)" mask="url(#path-1-inside-1_1123_55686)"/>
</g>
<defs>
<filter id="filter0_b_1123_55686" x="-50" y="-50" width="450" height="440" filterUnits="userSpaceOnUse" color-interpolation-filters="sRGB">
<feFlood flood-opacity="0" result="BackgroundImageFix"/>
<feGaussianBlur in="BackgroundImageFix" stdDeviation="25"/>
<feComposite in2="SourceAlpha" operator="in" result="effect1_backgroundBlur_1123_55686"/>
<feBlend mode="normal" in="SourceGraphic" in2="effect1_backgroundBlur_1123_55686" result="shape"/>
</filter>
<linearGradient id="paint0_linear_1123_55686" x1="0" y1="0" x2="408.347" y2="241.234" gradientUnits="userSpaceOnUse">
<stop stop-color="white"/>
<stop offset="1" stop-color="white" stop-opacity="0.35"/>
</linearGradient>
</defs>
</svg>
