<svg width="20" height="20" viewBox="0 0 20 20" fill="none" xmlns="http://www.w3.org/2000/svg">
<path d="M10.0013 15.1667C11.8423 15.1667 13.3346 13.6743 13.3346 11.8333C13.3346 9.99238 11.8423 8.5 10.0013 8.5C8.16035 8.5 6.66797 9.99238 6.66797 11.8333C6.66797 13.6743 8.16035 15.1667 10.0013 15.1667Z" stroke="#292D32" stroke-width="1.5" stroke-miterlimit="10" stroke-linecap="round" stroke-linejoin="round"/>
<path d="M8.69922 11.9168L9.24089 12.4584C9.39922 12.6168 9.65755 12.6168 9.81589 12.4668L11.2992 11.1001" stroke="#292D32" stroke-width="1.5" stroke-linecap="round" stroke-linejoin="round"/>
<path d="M6.66734 18.3333H13.334C16.684 18.3333 17.284 16.9917 17.459 15.3583L18.084 8.69167C18.309 6.65833 17.7257 5 14.1673 5H5.834C2.27567 5 1.69234 6.65833 1.91734 8.69167L2.54234 15.3583C2.71734 16.9917 3.31734 18.3333 6.66734 18.3333Z" stroke="#292D32" stroke-width="1.5" stroke-miterlimit="10" stroke-linecap="round" stroke-linejoin="round"/>
<path d="M6.66797 5.00008V4.33341C6.66797 2.85841 6.66797 1.66675 9.33464 1.66675H10.668C13.3346 1.66675 13.3346 2.85841 13.3346 4.33341V5.00008" stroke="#292D32" stroke-width="1.5" stroke-miterlimit="10" stroke-linecap="round" stroke-linejoin="round"/>
<path d="M18.0398 9.16675C16.5982 10.2167 14.9982 10.9501 13.3398 11.3667" stroke="#292D32" stroke-width="1.5" stroke-miterlimit="10" stroke-linecap="round" stroke-linejoin="round"/>
<path d="M2.18359 9.3916C3.57526 10.3416 5.09193 11.0166 6.66693 11.3999" stroke="#292D32" stroke-width="1.5" stroke-miterlimit="10" stroke-linecap="round" stroke-linejoin="round"/>
</svg>
