<svg width="20" height="20" viewBox="0 0 20 20" fill="none" xmlns="http://www.w3.org/2000/svg">
<path d="M2.50781 9.3501V13.0918C2.50781 16.8334 4.00781 18.3334 7.74948 18.3334H12.2411C15.9828 18.3334 17.4828 16.8334 17.4828 13.0918V9.3501" stroke="#292D32" stroke-width="1.5" stroke-linecap="round" stroke-linejoin="round"/>
<path d="M10.0017 10.0001C11.5267 10.0001 12.6517 8.75841 12.5017 7.23341L11.9517 1.66675H8.06003L7.5017 7.23341C7.3517 8.75841 8.4767 10.0001 10.0017 10.0001Z" stroke="#292D32" stroke-width="1.5" stroke-linecap="round" stroke-linejoin="round"/>
<path d="M15.2596 10.0001C16.943 10.0001 18.1763 8.63341 18.0096 6.95841L17.7763 4.66675C17.4763 2.50008 16.643 1.66675 14.4596 1.66675H11.918L12.5013 7.50841C12.643 8.88341 13.8846 10.0001 15.2596 10.0001Z" stroke="#292D32" stroke-width="1.5" stroke-linecap="round" stroke-linejoin="round"/>
<path d="M4.69868 10.0001C6.07368 10.0001 7.31535 8.88341 7.44868 7.50841L7.63202 5.66675L8.03202 1.66675H5.49035C3.30702 1.66675 2.47368 2.50008 2.17368 4.66675L1.94868 6.95841C1.78201 8.63341 3.01535 10.0001 4.69868 10.0001Z" stroke="#292D32" stroke-width="1.5" stroke-linecap="round" stroke-linejoin="round"/>
<path d="M10.0013 14.1667C8.60964 14.1667 7.91797 14.8584 7.91797 16.2501V18.3334H12.0846V16.2501C12.0846 14.8584 11.393 14.1667 10.0013 14.1667Z" stroke="#292D32" stroke-width="1.5" stroke-linecap="round" stroke-linejoin="round"/>
</svg>
